<svg xmlns="http://www.w3.org/2000/svg" xmlns:xlink="http://www.w3.org/1999/xlink" version="1.1" data-diagram-type="CLASS" style="width:782px;height:692px;background:#FFFFFF;" width="782px" height="692px" viewBox="0 0 782 692" zoomAndPan="magnify" preserveAspectRatio="none" contentStyleType="text/css"><?plantuml 1.2026.7beta5?><defs/><g font-family="sans-serif" lengthAdjust="spacing"><!--class users--><g class="entity" data-qualified-name="users" id="ent0001" data-source-line="5"><rect x="30.48" y="231.52" width="318.421" height="172.672" fill="#F1F1F1" style="stroke:#181818;stroke-width:0.5;" rx="2.5" ry="2.5"/><text x="170.775" y="249.515" fill="#000" font-size="14" textLength="37.83">users</text><line x1="31.48" y1="257.817" x2="347.901" y2="257.817" style="stroke:#181818;stroke-width:0.5;"/><g data-visibility-modifier="IE_MANDATORY"><ellipse cx="41.48" cy="271.465" rx="3" ry="3" fill="#000" style="stroke:#000;stroke-width:1;"/></g><text x="50.48" y="274.812" fill="#000" font-size="14" textLength="92.723">id : uint «PK»</text><line x1="31.48" y1="282.114" x2="347.901" y2="282.114" style="stroke:#181818;stroke-width:1;"/><text x="36.48" y="299.109" fill="#000" font-size="14" textLength="274.791">email : varchar(255) «unique, not null»</text><text x="36.48" y="315.406" fill="#000" font-size="14" textLength="306.421">username : varchar(100) «unique, not null»</text><text x="36.48" y="331.703" fill="#000" font-size="14" textLength="182.69">password : text «not null»</text><text x="36.48" y="347.999" fill="#000" font-size="14" textLength="218.976">name : varchar(255) «not null»</text><text x="36.48" y="364.296" fill="#000" font-size="14" textLength="163.837">created_at : timestamp</text><text x="36.48" y="380.593" fill="#000" font-size="14" textLength="168.417">updated_at : timestamp</text><text x="36.48" y="396.89" fill="#000" font-size="14" textLength="163.194">deleted_at : timestamp</text></g><!--class servers--><g class="entity" data-qualified-name="servers" id="ent0002" data-source-line="17"><rect x="233.5" y="7" width="298.392" height="140.078" fill="#F1F1F1" style="stroke:#181818;stroke-width:0.5;" rx="2.5" ry="2.5"/><text x="356.89" y="24.995" fill="#000" font-size="14" textLength="51.611">servers</text><line x1="234.5" y1="33.297" x2="530.892" y2="33.297" style="stroke:#181818;stroke-width:0.5;"/><g data-visibility-modifier="IE_MANDATORY"><ellipse cx="244.5" cy="46.945" rx="3" ry="3" fill="#000" style="stroke:#000;stroke-width:1;"/></g><text x="253.5" y="50.292" fill="#000" font-size="14" textLength="92.723">id : uint «PK»</text><line x1="234.5" y1="57.594" x2="530.892" y2="57.594" style="stroke:#181818;stroke-width:1;"/><text x="239.5" y="74.589" fill="#000" font-size="14" textLength="218.976">name : varchar(255) «not null»</text><text x="239.5" y="90.886" fill="#000" font-size="14" textLength="286.392">created_by_id : uint «FK, not null, index»</text><text x="239.5" y="107.183" fill="#000" font-size="14" textLength="163.837">created_at : timestamp</text><text x="239.5" y="123.479" fill="#000" font-size="14" textLength="168.417">updated_at : timestamp</text><text x="239.5" y="139.776" fill="#000" font-size="14" textLength="163.194">deleted_at : timestamp</text></g><!--class endpoints--><g class="entity" data-qualified-name="endpoints" id="ent0003" data-source-line="27"><rect x="383.6" y="207.08" width="384.176" height="221.563" fill="#F1F1F1" style="stroke:#181818;stroke-width:0.5;" rx="2.5" ry="2.5"/><text x="541.002" y="225.075" fill="#000" font-size="14" textLength="69.371">endpoints</text><line x1="384.6" y1="233.377" x2="766.776" y2="233.377" style="stroke:#181818;stroke-width:0.5;"/><g data-visibility-modifier="IE_MANDATORY"><ellipse cx="394.6" cy="247.025" rx="3" ry="3" fill="#000" style="stroke:#000;stroke-width:1;"/></g><text x="403.6" y="250.372" fill="#000" font-size="14" textLength="92.723">id : uint «PK»</text><line x1="384.6" y1="257.674" x2="766.776" y2="257.674" style="stroke:#181818;stroke-width:1;"/><text x="389.6" y="274.669" fill="#000" font-size="14" textLength="252.902">server_id : uint «FK, not null, index»</text><text x="389.6" y="290.966" fill="#000" font-size="14" textLength="134.497">url : text «not null»</text><text x="389.6" y="307.263" fill="#000" font-size="14" textLength="372.176">monitor_status : varchar(10) «not null, default=OFF»</text><text x="389.6" y="323.559" fill="#000" font-size="14" textLength="349.262">interval : bigint «not null, default=30000000000»</text><text x="389.6" y="339.856" fill="#000" font-size="14" textLength="350.444">timeout : bigint «not null, default=10000000000»</text><text x="389.6" y="356.153" fill="#000" font-size="14" textLength="322.567">method : varchar(10) «not null, default=GET»</text><text x="389.6" y="372.45" fill="#000" font-size="14" textLength="308.813">expected_code : int «not null, default=200»</text><text x="389.6" y="388.747" fill="#000" font-size="14" textLength="163.837">created_at : timestamp</text><text x="389.6" y="405.044" fill="#000" font-size="14" textLength="168.417">updated_at : timestamp</text><text x="389.6" y="421.341" fill="#000" font-size="14" textLength="163.194">deleted_at : timestamp</text></g><!--class server_events--><g class="entity" data-qualified-name="server_events" id="ent0004" data-source-line="42"><rect x="434.36" y="529.38" width="282.662" height="107.484" fill="#F1F1F1" style="stroke:#181818;stroke-width:0.5;" rx="2.5" ry="2.5"/><text x="526.448" y="547.375" fill="#000" font-size="14" textLength="98.485">server_events</text><line x1="435.36" y1="555.677" x2="716.022" y2="555.677" style="stroke:#181818;stroke-width:0.5;"/><g data-visibility-modifier="IE_MANDATORY"><ellipse cx="445.36" cy="569.325" rx="3" ry="3" fill="#000" style="stroke:#000;stroke-width:1;"/></g><text x="454.36" y="572.672" fill="#000" font-size="14" textLength="96.12">id : uuid «PK»</text><line x1="435.36" y1="579.974" x2="716.022" y2="579.974" style="stroke:#181818;stroke-width:1;"/><text x="440.36" y="596.969" fill="#000" font-size="14" textLength="270.662">endpoint_id : uint «FK, not null, index»</text><text x="440.36" y="613.266" fill="#000" font-size="14" textLength="213.384">status : varchar(20) «not null»</text><text x="440.36" y="629.563" fill="#000" font-size="14" textLength="195.248">time : timestamp «not null»</text></g><!--class notification_configs--><g class="entity" data-qualified-name="notification_configs" id="ent0005" data-source-line="50"><rect x="7" y="488.64" width="365.384" height="188.969" fill="#F1F1F1" style="stroke:#181818;stroke-width:0.5;" rx="2.5" ry="2.5"/><text x="121.76" y="506.635" fill="#000" font-size="14" textLength="135.864">notification_configs</text><line x1="8" y1="514.937" x2="371.384" y2="514.937" style="stroke:#181818;stroke-width:0.5;"/><g data-visibility-modifier="IE_MANDATORY"><ellipse cx="18" cy="528.585" rx="3" ry="3" fill="#000" style="stroke:#000;stroke-width:1;"/></g><text x="27" y="531.932" fill="#000" font-size="14" textLength="92.723">id : uint «PK»</text><line x1="8" y1="539.234" x2="371.384" y2="539.234" style="stroke:#181818;stroke-width:1;"/><text x="13" y="556.229" fill="#000" font-size="14" textLength="248.582">user_id : uint «FK, unique, not null»</text><text x="13" y="572.526" fill="#000" font-size="14" textLength="259.185">active : bool «not null, default=true»</text><text x="13" y="588.823" fill="#000" font-size="14" textLength="191.126">from_date : date «not null»</text><text x="13" y="605.119" fill="#000" font-size="14" textLength="172.293">to_date : date «not null»</text><text x="13" y="621.416" fill="#000" font-size="14" textLength="353.384">digest_time : varchar(5) «not null, default=08:00»</text><text x="13" y="637.713" fill="#000" font-size="14" textLength="163.837">created_at : timestamp</text><text x="13" y="654.01" fill="#000" font-size="14" textLength="168.417">updated_at : timestamp</text><text x="13" y="670.307" fill="#000" font-size="14" textLength="163.194">deleted_at : timestamp</text></g><!--link servers to users--><g class="link" data-entity-1="ent0002" data-entity-2="ent0001" id="lnk6" data-source-line="63" data-link-type="crowfoot"><path d="M291.2,165.34 C291.2,191.58 291.2,195.68 291.2,223.22" style="stroke:#181818;stroke-width:1;" fill="none" id="servers-users" codeLine="63"/><line x1="291.2" y1="155.34" x2="285.2" y2="147.34" style="stroke:#181818;stroke-width:1;"/><line x1="291.2" y1="155.34" x2="297.2" y2="147.34" style="stroke:#181818;stroke-width:1;"/><line x1="291.2" y1="155.34" x2="291.2" y2="147.34" style="stroke:#181818;stroke-width:1;"/><ellipse cx="291.2" cy="161.34" rx="4" ry="4" fill="none" style="stroke:#181818;stroke-width:1;"/><line x1="295.2" y1="227.22" x2="287.2" y2="227.22" style="stroke:#181818;stroke-width:1;"/><line x1="295.2" y1="224.22" x2="287.2" y2="224.22" style="stroke:#181818;stroke-width:1;"/><line x1="291.2" y1="223.22" x2="291.2" y2="231.22" style="stroke:#181818;stroke-width:1;"/><text x="242.2" y="185.347" fill="#000" font-size="13" textLength="48.325">creates</text></g><!--link servers to endpoints--><g class="link" data-entity-1="ent0002" data-entity-2="ent0003" id="lnk7" data-source-line="64" data-link-type="association"><path d="M457.75,155.34 C457.75,173.95 457.75,178.49 457.75,198.69" style="stroke:#181818;stroke-width:1;" fill="none" id="servers-endpoints" codeLine="64"/><line x1="453.75" y1="151.34" x2="461.75" y2="151.34" style="stroke:#181818;stroke-width:1;"/><line x1="453.75" y1="154.34" x2="461.75" y2="154.34" style="stroke:#181818;stroke-width:1;"/><line x1="457.75" y1="155.34" x2="457.75" y2="147.34" style="stroke:#181818;stroke-width:1;"/><line x1="461.75" y1="202.69" x2="453.75" y2="202.69" style="stroke:#181818;stroke-width:1;"/><line x1="461.75" y1="199.69" x2="453.75" y2="199.69" style="stroke:#181818;stroke-width:1;"/><line x1="457.75" y1="198.69" x2="457.75" y2="206.69" style="stroke:#181818;stroke-width:1;"/><text x="434.75" y="173.087" fill="#000" font-size="13" textLength="22.979">has</text></g><!--link endpoints to server_events--><g class="link" data-entity-1="ent0003" data-entity-2="ent0004" id="lnk8" data-source-line="65" data-link-type="crowfoot"><path d="M575.69,436.82 C575.69,471.46 575.69,482.13 575.69,511.03" style="stroke:#181818;stroke-width:1;" fill="none" id="endpoints-server_events" codeLine="65"/><line x1="571.69" y1="432.82" x2="579.69" y2="432.82" style="stroke:#181818;stroke-width:1;"/><line x1="571.69" y1="435.82" x2="579.69" y2="435.82" style="stroke:#181818;stroke-width:1;"/><line x1="575.69" y1="436.82" x2="575.69" y2="428.82" style="stroke:#181818;stroke-width:1;"/><line x1="575.69" y1="521.03" x2="581.69" y2="529.03" style="stroke:#181818;stroke-width:1;"/><line x1="575.69" y1="521.03" x2="569.69" y2="529.03" style="stroke:#181818;stroke-width:1;"/><line x1="575.69" y1="521.03" x2="575.69" y2="529.03" style="stroke:#181818;stroke-width:1;"/><ellipse cx="575.69" cy="515.03" rx="4" ry="4" fill="none" style="stroke:#181818;stroke-width:1;"/><text x="526.69" y="474.987" fill="#000" font-size="13" textLength="48.813">records</text></g><!--link users to notification_configs--><g class="link" data-entity-1="ent0001" data-entity-2="ent0005" id="lnk9" data-source-line="66" data-link-type="association"><path d="M189.69,412.35 C189.69,439.26 189.69,453.07 189.69,480.51" style="stroke:#181818;stroke-width:1;" fill="none" id="users-notification_configs" codeLine="66"/><line x1="185.69" y1="408.35" x2="193.69" y2="408.35" style="stroke:#181818;stroke-width:1;"/><line x1="185.69" y1="411.35" x2="193.69" y2="411.35" style="stroke:#181818;stroke-width:1;"/><line x1="189.69" y1="412.35" x2="189.69" y2="404.35" style="stroke:#181818;stroke-width:1;"/><line x1="193.69" y1="484.51" x2="185.69" y2="484.51" style="stroke:#181818;stroke-width:1;"/><line x1="193.69" y1="481.51" x2="185.69" y2="481.51" style="stroke:#181818;stroke-width:1;"/><line x1="189.69" y1="480.51" x2="189.69" y2="488.51" style="stroke:#181818;stroke-width:1;"/><text x="149.69" y="442.497" fill="#000" font-size="13" textLength="39.781">config</text></g><?plantuml-src jLJ1Zjem4BtdAwmzjHL8MIgaAjgkr4EfgZsqKdkFZ3t0g8wTscCANVRVQoS1aX0MUe03SVncvisycSmA9J21LYX8t2_K9RUyO0erqBO4PYojJ0i0JKZRJqGMvvxWgp3w1_u5bYP93R4xxy2wEyOTgqxiEM7i7KF9CkPH4tju-Fxq-1Wkn-Fm1mL75Q0rjsB5xPl9TFesc7YDlpsCc3R4j5UgSeZnD2-WPNwVfcVDI-xS7sCZCS4c4dVWNgI6k6CYB702cNEACR00HxmeOoQb70OaA1W0NexoX1hMUu6QymM9_YFH-JPlHvaz7IKPCTGIDZUh2xGiJQ2jApkyNQYjLk2gfBrLPpfP68raR1vo8kywqz5MQXIgM72lwEEtsQno38I1dyUuSrpMzAVMxzF3h_AAvHjFhplTzvmA21-Il2AtBvz_LWwmAK54oOMHiVtdY2ODmUrcDOSrxFlQkUdqreT7xzDkPk2gxfxqRfAUJ7dCiPrg5s_b7MvnWO8J6XtqqmjSrkaF0HScD2wTame6zmqNXEkOuDmODTWhiXugquKrHHxR4gohHxzIynegSHa4o1ivze9DX-Sf_P3TO4Bsc-l5ZCUxNRFfiuR27U3TheAFso1ZA-wIutiqCC-ziSgO1H4Mjqlgk4sKmUO5pkhq3m00?></g></svg>